<?xml version="1.0" standalone="no"?>
<!DOCTYPE svg PUBLIC "-//W3C//DTD SVG 20010904//EN"
 "http://www.w3.org/TR/2001/REC-SVG-20010904/DTD/svg10.dtd">
<svg version="1.0" xmlns="http://www.w3.org/2000/svg"
 width="256.000000pt" height="256.000000pt" viewBox="0 0 256.000000 256.000000"
 preserveAspectRatio="xMidYMid meet">

<g transform="translate(0.000000,256.000000) scale(0.100000,-0.100000)"
fill="#000000" stroke="none">
<path d="M1144 2305 c-249 -74 -561 -236 -650 -337 -34 -39 -57 -117 -74 -248
-13 -100 -12 -721 0 -835 12 -106 42 -212 70 -247 11 -14 61 -53 112 -87 227
-151 599 -295 711 -275 207 38 500 168 687 305 130 95 142 153 148 674 4 383
-1 456 -35 608 -18 82 -47 119 -147 187 -207 139 -556 281 -690 279 -28 0 -87
-11 -132 -24z m329 -596 c219 -72 522 -237 582 -317 12 -16 20 -47 23 -82 3
-45 0 -61 -20 -89 -55 -81 -347 -244 -578 -322 -171 -59 -228 -59 -400 0 -69
23 -176 66 -237 96 -123 59 -302 173 -333 212 -41 53 -44 131 -7 184 54 76
351 239 572 314 176 60 230 60 398 4z"/>
</g>
</svg>
